<?xml version="1.0" standalone="no"?>
<!DOCTYPE svg PUBLIC "-//W3C//DTD SVG 1.1//EN" "http://www.w3.org/Graphics/SVG/1.1/DTD/svg11.dtd">
<svg width="2560px" height="1600px" version="1.1" xmlns="http://www.w3.org/2000/svg" xmlns:xlink="http://www.w3.org/1999/xlink" xml:space="preserve" style="fill-rule:evenodd;clip-rule:evenodd;stroke-linejoin:round;stroke-miterlimit:1.41421;">
    <g>
        <g id="Layer1">
            <g>
                <path d="M1245.81,47.6594C1665.16,47.6594 2005.11,387.608 2005.11,806.956C2005.11,1226.3 1665.16,1566.25 1245.81,1566.25C826.461,1566.25 486.512,1226.3 486.512,806.956C486.512,387.608 826.461,47.6594 1245.81,47.6594Z" style="fill:rgb(216,216,216);"/>
            </g>
            <g>
                <path d="M591.433,422.841C591.433,422.841 427.133,684.5 504.268,980.783C567.127,1222.23 660.987,1329.58 814.988,1433.45C967.235,1536.15 1144.95,1611.06 1433.81,1549.86C1722.67,1488.67 1897.45,1199.67 1897.45,1199.67C1897.45,1199.67 1282.94,1337.42 972.346,1102.01C699.321,895.066 591.433,422.841 591.433,422.841Z" style="fill:rgb(127,112,112);"/>
            </g>
            <g>
                <path d="M1787.65,1092.77C1815.54,1092.77 1838.14,1115.37 1838.14,1143.25C1838.14,1171.14 1815.54,1193.74 1787.65,1193.74C1759.77,1193.74 1737.16,1171.14 1737.16,1143.25C1737.16,1115.37 1759.77,1092.77 1787.65,1092.77Z" style="fill:rgb(127,112,112);"/>
            </g>
            <g>
                <path d="M1680.84,1047.55C1699.42,1047.55 1714.48,1062.61 1714.48,1081.19C1714.48,1099.76 1699.42,1114.82 1680.84,1114.82C1662.26,1114.82 1647.2,1099.76 1647.2,1081.19C1647.2,1062.61 1662.26,1047.55 1680.84,1047.55Z" style="fill:rgb(127,112,112);"/>
            </g>
            <g>
                <path d="M835.666,370.425C868.338,403.167 861.958,462.508 821.413,502.967C780.869,543.425 721.515,549.681 688.842,516.939C656.17,484.197 662.55,424.857 703.095,384.398C743.639,343.939 802.993,337.683 835.666,370.425Z" style="fill:rgb(127,112,112);"/>
            </g>
            <g>
                <path d="M835.666,370.425C868.338,403.167 861.958,462.508 821.413,502.967C780.869,543.425 721.515,549.681 688.842,516.939C656.17,484.197 662.55,424.857 703.095,384.398C743.639,343.939 802.993,337.683 835.666,370.425Z" style="fill:rgb(127,112,112);"/>
            </g>
            <g>
                <path d="M1893.42,1035.88C1902.64,1035.88 1910.12,1043.36 1910.12,1052.58C1910.12,1061.81 1902.64,1069.28 1893.42,1069.28C1884.19,1069.28 1876.72,1061.81 1876.72,1052.58C1876.72,1043.36 1884.19,1035.88 1893.42,1035.88Z" style="fill:rgb(127,112,112);"/>
            </g>
            <g>
                <path d="M1648.22,1140.14C1667.17,1140.14 1682.53,1155.5 1682.53,1174.45C1682.53,1193.4 1667.17,1208.76 1648.22,1208.76C1629.27,1208.76 1613.91,1193.4 1613.91,1174.45C1613.91,1155.5 1629.27,1140.14 1648.22,1140.14Z" style="fill:rgb(127,112,112);"/>
            </g>
        </g>
    </g>
</svg>
